<?xml version="1.0" encoding="UTF-8" standalone="no"?>
<!-- Created with Inkscape (http://www.inkscape.org/) -->

<svg
   width="116.41011"
   height="116.42994"
   viewBox="0 0 30.800174 30.805421"
   version="1.1"
   id="svg1"
   xml:space="preserve"
   xmlns="http://www.w3.org/2000/svg"
   xmlns:svg="http://www.w3.org/2000/svg"><defs
     id="defs1" /><g
     id="layer1"
     transform="translate(-0.98469626,-1.2490546)"><path
       style="fill:#000000;fill-opacity:0;stroke:#000000;stroke-width:0.313701;stroke-dasharray:none;stroke-opacity:0"
       d="M 56.870147,120.91186 C 48.606451,119.91242 43.175884,118.36245 36.489644,115.09491 12.998425,103.61488 0.01462978,77.777732 4.8998316,52.232667 7.508836,38.59 14.989911,26.158259 25.750217,17.584357 31.720977,12.826807 39.546653,8.8536836 46.862954,6.8653482 58.529777,3.6946807 71.442871,4.3389909 82.589618,8.6479614 102.35215,16.287514 116.22339,33.522743 119.5336,54.551407 c 0.53353,3.389381 0.59395,12.817172 0.10323,16.109141 -3.87534,25.997419 -23.215641,45.628932 -49.077086,49.816052 -2.246361,0.3637 -11.776014,0.6667 -13.689597,0.43526 z m 13.058167,-1.41711 c 9.946657,-1.45081 18.797048,-5.19044 27.092645,-11.44767 2.784873,-2.10058 8.272791,-7.66713 10.434981,-10.584489 6.05833,-8.17427 9.62929,-16.760779 11.08976,-26.665755 0.56836,-3.854629 0.56836,-11.794854 0,-15.649483 -1.48384,-10.063507 -5.22281,-18.924164 -11.47785,-27.200435 -1.76434,-2.334455 -7.164868,-7.8052 -9.574402,-9.698884 C 89.503697,11.968788 80.326969,8.0525644 69.806275,6.432368 65.950421,5.8385629 58.066349,5.8363555 54.18529,6.4279944 41.279929,8.3953227 30.646805,13.714211 21.705804,22.674843 16.795167,27.596262 13.628961,32.003016 10.727811,37.954111 6.78289,46.046282 5.023792,53.761732 5.023792,62.972094 c 0,9.211073 1.7463103,16.865301 5.707846,25.017984 2.881615,5.930245 6.056971,10.351277 10.974166,15.279272 9.794344,9.81584 21.701935,15.30633 36.140655,16.66414 2.057432,0.19348 9.633629,-0.0816 12.081855,-0.43874 z"
       id="path2"
       transform="scale(0.26458333)" /><path
       id="path3"
       style="fill:#ffffff;fill-opacity:1;stroke:#ffffff;stroke-width:0.0830001;stroke-dasharray:none;stroke-opacity:1"
       d="m 15.960783,1.5668294 c -5.301935,-0.08437 -7.1018922,7.2005941 -7.1018922,7.2005941 0,0 -7.1237851,1.2329585 -7.0781209,7.4889485 0.045664,6.255991 7.0781209,7.580416 7.0781209,7.580416 0,0 0.9134868,7.488821 7.9457682,6.895186 7.032281,-0.593634 7.169071,-6.758244 7.169071,-6.758244 0,0 0.8219,-1.963465 2.511475,-2.146122 1.689574,-0.182656 4.703589,-0.09147 4.703589,-0.09147 V 10.228833 l -4.566646,-0.04547 c 0,0 -1.917981,0.547635 -2.602942,-1.9182294 C 23.334243,5.7992624 22.192802,2.191986 16.484782,1.5983521 16.306406,1.579801 16.131813,1.5695511 15.960783,1.5668294 Z M 7.7969401,13.128398 A 3.0308814,3.0308814 0 0 1 10.82828,16.15922 3.0308814,3.0308814 0 0 1 7.7969401,19.19056 3.0308814,3.0308814 0 0 1 4.7661174,16.15922 3.0308814,3.0308814 0 0 1 7.7969401,13.128398 Z" /></g></svg>
