<?xml version="1.0" encoding="UTF-8" standalone="no"?>
<!-- Created with Inkscape (http://www.inkscape.org/) -->

<svg
   width="121.62034"
   height="95.505112"
   viewBox="0 0 32.178714 25.26906"
   version="1.1"
   id="svg1"
   xml:space="preserve"
   xmlns="http://www.w3.org/2000/svg"
   xmlns:svg="http://www.w3.org/2000/svg"><defs
     id="defs1" /><g
     id="layer1"
     transform="translate(-0.92743303,-3.7686032)"><path
       id="path2"
       style="fill:#ffffff;fill-opacity:1;stroke:#ffffff;stroke-width:0.0830001;stroke-opacity:1"
       d="M 13.561446,3.8101034 A 12.592894,12.592894 0 0 0 0.96893311,16.403133 12.592894,12.592894 0 0 0 13.561446,28.996163 12.592894,12.592894 0 0 0 24.927677,21.797119 v 0.288871 h 8.136971 V 11.43031 H 25.127665 A 12.592894,12.592894 0 0 0 13.561446,3.8101034 Z M 7.1458171,13.277226 a 3.4545865,3.4545865 0 0 1 3.4545699,3.454569 3.4545865,3.4545865 0 0 1 -3.4545699,3.45457 3.4545865,3.4545865 0 0 1 -3.4545695,-3.45457 3.4545865,3.4545865 0 0 1 3.4545695,-3.454569 z" /></g></svg>
